<?xml version="1.0" encoding="utf-8"?>
<!-- Generator: Adobe Illustrator 22.0.1, SVG Export Plug-In . SVG Version: 6.00 Build 0)  -->
<svg version="1.1" id="Layer_1" xmlns="http://www.w3.org/2000/svg" xmlns:xlink="http://www.w3.org/1999/xlink" x="0px" y="0px"
	 viewBox="0 0 270 260" style="enable-background:new 0 0 270 260;" xml:space="preserve">
<style type="text/css">
	.st0{fill:#82837c;stroke:#F4F4F4;stroke-width:2;stroke-linejoin:round;}
	.st1{fill:#D44848;stroke:#F4F4F4;stroke-linejoin:round;}
	.st2{fill:#57A298;stroke:#F4F4F4;stroke-linejoin:round;}
</style>
<g>
	<path id="budapest" class="st0" d="M76.7,11.8l-5-8.6l0.6,16.9l2.8,7.2l-12.2-0.3L57,31.5H45.1l-2.8-2.8l-4.7,2.5l3.1,4.4l-2.8,5.8
		L26,38.2H12.1l-7.8,4.4l8.9,13.9L11,65.4l-6.9,5l5.5,3.9L9.3,90.1L3,90.3l8.3,4.7L8.5,102l6.4,9.7l-5,6.9l8.3,9.7l7.8,0.3l10,11.9
		l-0.3,16.6l-3.3,2.2l4.2,4.4l0.3,12.8l-13,14.1l-0.3,7.8l4.7,11.4L24,216h-7.5l10.5,18.3l18-14.7l23.6,0.6l3.3,4.2l4.7-3.1l3.6,2.8
		l6.9-8l6.4-0.3l-3.3-5.8l4.7-3.3l9.2,0.3l9.7,13l4.7,2.5l-3.3,7.8l27.2,26.6l8.3-5.5l13.9-1.9l25.8-42.7l5,2.8l3.9-7.8l-8.6-6.4
		l10.5-9.2l7.8,5.3l12.2-11.7l3.3-8l10.3,5l0.6-10l13-13H267v-20.8l-14.1-20l7.2-9.4l-7.5-4.4l-14.1,5.5l-13.6-0.3l-14.4-29.1
		l-13.6,7.2l-9.7-6.4l-13.9-0.8l-6.7-4.7v-5.3l-9.2-7.5l11.1-6.9L154.7,44h-7.2v-5l5.3-5.3l-12.5-13.3l-7.8-0.3l-6.7-6.7h-4.7
		l-1.4-5.8l-5.3-3.9L99.8,30.7l-0.8-18.6L76.7,11.8z"/>
	<path class="st1" d="M75,100.2l8.5,3.6v13.8c0.5,1.4,1.4,2.4,2.8,3.2l1.5,3.6l-4.5,2.5C79.8,124.9,77.4,112,75,100.2z"/>
	<path class="st2" d="M73.6,107.7h-11v11c4-0.3,6.2,2.2,6,8c4.5,1,8.1,1.2,10,0C75.2,121.3,73.7,114.9,73.6,107.7z"/>
</g>
</svg>
