<?xml version="1.0" encoding="utf-8"?>
<!-- Generator: Adobe Illustrator 22.0.1, SVG Export Plug-In . SVG Version: 6.00 Build 0)  -->
<svg version="1.1" id="Layer_1" xmlns="http://www.w3.org/2000/svg" xmlns:xlink="http://www.w3.org/1999/xlink" x="0px" y="0px"
	 viewBox="0 0 70 75" style="enable-background:new 0 0 70 75;" xml:space="preserve">
<style type="text/css">
	.st0{fill:#222220;stroke:#F4F4F4;stroke-width:2;stroke-miterlimit:10;}
	.st1{fill:#F4F4F4;}
	.st2{fill:#82837c;stroke:#F4F4F4;stroke-width:2;stroke-linecap:round;stroke-linejoin:round;stroke-miterlimit:10;}
	.st3{fill:#82837c;stroke:#F4F4F4;stroke-width:2;stroke-linejoin:round;stroke-miterlimit:10;}
</style>
<g>
	<path class="st0" d="M12.1,54C12.1,54,12,54,12.1,54C7.6,54,4,50.4,4,46c0-4.4,3.6-8,8-8v14C12,52.7,12,53.3,12.1,54z M56,38
		c-0.7,0-1.4,0.1-2,0.3V52c0,0.6,0,1.1-0.1,1.7c0.7,0.2,1.4,0.3,2.1,0.3c4.4,0,8-3.6,8-8C64,41.6,60.4,38,56,38z M33,15
		c-11.6,0-21,9.4-21,21v16c0,0.7,0,1.3,0.1,2c1,10.7,10,19,20.9,19c11,0,20-8.5,20.9-19.3C54,53.1,54,52.6,54,52V36
		C54,24.4,44.6,15,33,15z"/>
	<circle class="st1" cx="22" cy="45" r="4"/>
	<circle class="st1" cx="45" cy="45" r="4"/>
	<path class="st2" d="M19,18.5c3,18.6,28,22.6,47,14.6C47,35.8,42-26.7,19,18.5z"/>
	<path class="st3" d="M20,18c2.3,8.6,1.2,16.1-7,21C5,31,10,22,20,18z"/>
</g>
</svg>
