<?xml version="1.0" encoding="utf-8"?>
<!-- Generator: Adobe Illustrator 22.0.1, SVG Export Plug-In . SVG Version: 6.00 Build 0)  -->
<svg version="1.1" id="Layer_1" xmlns="http://www.w3.org/2000/svg" xmlns:xlink="http://www.w3.org/1999/xlink" x="0px" y="0px"
	 viewBox="0 0 280 200" style="enable-background:new 0 0 280 200;" xml:space="preserve">
<path d="M121.9,9.5h2.7c1.2,0,2.1,0.2,2.7,0.6s0.9,1.1,0.9,1.9c0,0.6-0.2,1.1-0.5,1.4c-0.4,0.4-0.9,0.6-1.5,0.7v0
	c0.8,0.1,1.4,0.4,1.8,0.8c0.4,0.4,0.6,0.9,0.6,1.6c0,0.9-0.3,1.6-0.9,2.1s-1.5,0.7-2.6,0.7h-3.1V9.5z M122.6,14h2.2
	c0.9,0,1.6-0.2,2-0.5c0.4-0.3,0.6-0.8,0.6-1.5s-0.2-1.1-0.7-1.4c-0.5-0.3-1.2-0.5-2.2-0.5h-2V14z M122.6,14.6v4.3h2.4
	c1.9,0,2.8-0.8,2.8-2.3c0-1.4-1-2.1-2.9-2.1H122.6z M131.1,12.1v4.8c0,0.7,0.2,1.3,0.5,1.6c0.3,0.3,0.8,0.5,1.5,0.5
	c0.9,0,1.5-0.2,2-0.7c0.4-0.4,0.6-1.2,0.6-2.2v-4.1h0.7v7.4h-0.6l-0.1-1h0c-0.5,0.8-1.3,1.2-2.6,1.2c-1.7,0-2.5-0.9-2.5-2.7v-4.9
	H131.1z M141.5,11.9c0.5,0,1,0.1,1.4,0.3s0.7,0.5,1.1,1h0c0-0.6,0-1.1,0-1.7V8.9h0.7v10.6h-0.4l-0.2-1.1h-0.1
	c-0.6,0.8-1.4,1.3-2.4,1.3c-1,0-1.8-0.3-2.4-1s-0.8-1.6-0.8-2.8c0-1.3,0.3-2.3,0.8-2.9S140.5,11.9,141.5,11.9z M141.5,12.5
	c-0.8,0-1.4,0.3-1.8,0.9c-0.4,0.6-0.6,1.4-0.6,2.5c0,2.1,0.8,3.2,2.5,3.2c0.8,0,1.5-0.2,1.8-0.7s0.6-1.3,0.6-2.4v-0.1
	c0-1.1-0.2-2-0.6-2.5C143,12.8,142.3,12.5,141.5,12.5z M151.6,19.5l-0.2-1.2h-0.1c-0.4,0.5-0.8,0.8-1.2,1c-0.4,0.2-0.9,0.3-1.4,0.3
	c-0.7,0-1.3-0.2-1.7-0.6s-0.6-0.9-0.6-1.6c0-0.7,0.3-1.3,0.9-1.7c0.6-0.4,1.5-0.6,2.6-0.6l1.4,0v-0.5c0-0.7-0.1-1.2-0.4-1.6
	s-0.8-0.5-1.4-0.5c-0.7,0-1.4,0.2-2.1,0.6l-0.3-0.6c0.8-0.4,1.6-0.6,2.4-0.6c0.8,0,1.4,0.2,1.8,0.6c0.4,0.4,0.6,1.1,0.6,2v4.9H151.6
	z M148.9,19c0.8,0,1.4-0.2,1.9-0.7c0.5-0.5,0.7-1.1,0.7-1.9v-0.7l-1.3,0.1c-1,0-1.8,0.2-2.2,0.5c-0.4,0.3-0.7,0.7-0.7,1.3
	c0,0.5,0.1,0.8,0.4,1.1C147.9,18.9,148.3,19,148.9,19z M245.5,12.4c0,1-0.3,1.7-1,2.2s-1.6,0.8-2.8,0.8h-1.5v4.1h-0.7v-10h2.4
	C244.3,9.5,245.5,10.5,245.5,12.4z M240.2,14.8h1.4c1.1,0,1.9-0.2,2.4-0.6c0.5-0.4,0.8-1,0.8-1.8c0-0.8-0.2-1.3-0.7-1.7
	c-0.5-0.4-1.2-0.6-2.2-0.6h-1.7V14.8z M250.5,19.6c-1.1,0-1.9-0.3-2.5-1c-0.6-0.7-0.9-1.6-0.9-2.8c0-1.2,0.3-2.1,0.9-2.8
	c0.6-0.7,1.4-1.1,2.4-1.1c0.9,0,1.6,0.3,2.1,0.9s0.8,1.4,0.8,2.5v0.5h-5.4c0,1,0.2,1.8,0.7,2.3c0.5,0.5,1.1,0.8,2,0.8
	c0.4,0,0.8,0,1.1-0.1c0.3-0.1,0.7-0.2,1.2-0.4v0.6c-0.4,0.2-0.8,0.3-1.2,0.4C251.3,19.6,250.9,19.6,250.5,19.6z M250.3,12.5
	c-0.7,0-1.3,0.2-1.7,0.7c-0.4,0.5-0.7,1.2-0.8,2h4.6c0-0.9-0.2-1.5-0.6-2C251.5,12.8,251,12.5,250.3,12.5z M259.8,17.6
	c0,0.7-0.3,1.2-0.8,1.5c-0.5,0.4-1.2,0.5-2.2,0.5c-1,0-1.8-0.2-2.4-0.5v-0.7c0.7,0.4,1.5,0.6,2.4,0.6c0.7,0,1.3-0.1,1.7-0.4
	c0.4-0.2,0.6-0.6,0.6-1c0-0.4-0.2-0.7-0.5-0.9c-0.3-0.3-0.8-0.5-1.5-0.8c-0.7-0.3-1.3-0.5-1.6-0.7c-0.3-0.2-0.5-0.4-0.7-0.7
	c-0.2-0.2-0.2-0.5-0.2-0.9c0-0.6,0.2-1,0.7-1.3c0.5-0.3,1.1-0.5,2-0.5c0.8,0,1.6,0.2,2.3,0.5l-0.3,0.6c-0.7-0.3-1.4-0.5-2-0.5
	c-0.6,0-1.1,0.1-1.4,0.3s-0.5,0.5-0.5,0.8c0,0.4,0.1,0.7,0.4,0.9c0.3,0.2,0.8,0.5,1.6,0.8c0.7,0.2,1.2,0.5,1.5,0.7
	c0.3,0.2,0.5,0.4,0.7,0.7C259.7,16.9,259.8,17.2,259.8,17.6z M263.7,19c0.4,0,0.8,0,1.1-0.1v0.5c-0.3,0.1-0.7,0.2-1.1,0.2
	c-0.7,0-1.1-0.2-1.5-0.5c-0.3-0.4-0.5-0.9-0.5-1.7v-4.8h-1.1v-0.4l1.1-0.3l0.3-1.7h0.3v1.8h2.2v0.6h-2.2v4.7c0,0.6,0.1,1,0.3,1.3
	S263.2,19,263.7,19z M55.5,164.5h0.8l-3.7,10h-0.6l-3.7-10h0.7l2.5,6.8c0.4,1,0.6,1.8,0.8,2.3c0.1-0.3,0.3-0.9,0.5-1.6L55.5,164.5z
	 M62,174.5l-0.2-1.2h-0.1c-0.4,0.5-0.8,0.8-1.2,1c-0.4,0.2-0.9,0.3-1.4,0.3c-0.7,0-1.3-0.2-1.7-0.6c-0.4-0.4-0.6-0.9-0.6-1.6
	c0-0.7,0.3-1.3,0.9-1.7c0.6-0.4,1.5-0.6,2.6-0.6l1.4,0v-0.5c0-0.7-0.1-1.2-0.4-1.6c-0.3-0.4-0.8-0.5-1.4-0.5c-0.7,0-1.4,0.2-2.1,0.6
	l-0.3-0.6c0.8-0.4,1.6-0.6,2.4-0.6c0.8,0,1.4,0.2,1.8,0.6c0.4,0.4,0.6,1.1,0.6,2v4.9H62z M59.3,174c0.8,0,1.4-0.2,1.9-0.7
	c0.5-0.5,0.7-1.1,0.7-1.9v-0.7l-1.3,0.1c-1,0-1.8,0.2-2.2,0.5c-0.4,0.3-0.7,0.7-0.7,1.3c0,0.5,0.1,0.8,0.4,1.1
	C58.4,173.9,58.8,174,59.3,174z M59.1,165.9c0.3-0.4,0.7-0.8,1-1.2c0.3-0.4,0.5-0.7,0.7-1h1v0.1c-0.2,0.2-0.4,0.6-0.8,0.9
	c-0.4,0.4-0.8,0.8-1.3,1.2h-0.5V165.9z M67.9,166.9c0.3,0,0.7,0,1,0.1l-0.1,0.7c-0.3-0.1-0.6-0.1-1-0.1c-0.6,0-1.2,0.3-1.6,0.8
	c-0.4,0.5-0.6,1.2-0.6,2v4.1h-0.7v-7.4h0.6l0.1,1.3h0c0.3-0.5,0.6-0.9,1-1.2S67.4,166.9,67.9,166.9z M76.5,170.8
	c0,1.2-0.3,2.2-0.9,2.8s-1.4,1-2.4,1c-0.7,0-1.2-0.2-1.7-0.5s-0.9-0.8-1.1-1.4s-0.4-1.3-0.4-2c0-1.2,0.3-2.2,0.9-2.8
	c0.6-0.7,1.4-1,2.4-1c1,0,1.8,0.3,2.4,1C76.2,168.6,76.5,169.6,76.5,170.8z M70.7,170.8c0,1,0.2,1.8,0.7,2.4
	c0.4,0.6,1.1,0.9,1.9,0.9s1.5-0.3,1.9-0.9c0.4-0.6,0.7-1.4,0.7-2.4c0-1-0.2-1.8-0.7-2.4c-0.5-0.6-1.1-0.8-1.9-0.8s-1.5,0.3-1.9,0.8
	C70.9,168.9,70.7,169.7,70.7,170.8z M83.2,172.6c0,0.7-0.3,1.2-0.8,1.5c-0.5,0.4-1.2,0.5-2.2,0.5c-1,0-1.8-0.2-2.4-0.5v-0.7
	c0.7,0.4,1.5,0.6,2.4,0.6c0.7,0,1.3-0.1,1.7-0.4c0.4-0.2,0.6-0.6,0.6-1c0-0.4-0.2-0.7-0.5-0.9c-0.3-0.3-0.8-0.5-1.5-0.8
	c-0.7-0.3-1.3-0.5-1.6-0.7s-0.5-0.4-0.7-0.7c-0.2-0.2-0.2-0.5-0.2-0.9c0-0.6,0.2-1,0.7-1.3c0.5-0.3,1.1-0.5,2-0.5
	c0.8,0,1.6,0.2,2.3,0.5l-0.3,0.6c-0.7-0.3-1.4-0.5-2-0.5c-0.6,0-1.1,0.1-1.4,0.3c-0.4,0.2-0.5,0.5-0.5,0.8c0,0.4,0.1,0.7,0.4,0.9
	c0.3,0.2,0.8,0.5,1.6,0.8c0.7,0.2,1.2,0.5,1.5,0.7c0.3,0.2,0.5,0.4,0.7,0.7C83.1,171.9,83.2,172.2,83.2,172.6z M94.4,174.5v-4.9
	c0-0.7-0.1-1.3-0.4-1.6c-0.3-0.3-0.7-0.5-1.3-0.5c-0.8,0-1.3,0.2-1.7,0.6c-0.4,0.4-0.5,1.1-0.5,2v4.4h-0.7v-5.1
	c0-1.3-0.6-1.9-1.7-1.9c-0.8,0-1.3,0.2-1.7,0.7c-0.4,0.5-0.5,1.2-0.5,2.2v4.1h-0.7v-7.4h0.6l0.1,1h0c0.2-0.4,0.5-0.7,0.9-0.9
	s0.8-0.3,1.3-0.3c1.2,0,1.9,0.4,2.3,1.3h0c0.2-0.4,0.6-0.8,1-1c0.4-0.2,0.9-0.3,1.4-0.3c0.8,0,1.4,0.2,1.8,0.7
	c0.4,0.4,0.6,1.1,0.6,2.1v4.9H94.4z M102,174.5l-0.2-1.2h-0.1c-0.4,0.5-0.8,0.8-1.2,1c-0.4,0.2-0.9,0.3-1.4,0.3
	c-0.7,0-1.3-0.2-1.7-0.6c-0.4-0.4-0.6-0.9-0.6-1.6c0-0.7,0.3-1.3,0.9-1.7c0.6-0.4,1.5-0.6,2.6-0.6l1.4,0v-0.5c0-0.7-0.1-1.2-0.4-1.6
	c-0.3-0.4-0.8-0.5-1.4-0.5c-0.7,0-1.4,0.2-2.1,0.6l-0.3-0.6c0.8-0.4,1.6-0.6,2.4-0.6c0.8,0,1.4,0.2,1.8,0.6c0.4,0.4,0.6,1.1,0.6,2
	v4.9H102z M99.2,174c0.8,0,1.4-0.2,1.9-0.7c0.5-0.5,0.7-1.1,0.7-1.9v-0.7l-1.3,0.1c-1,0-1.8,0.2-2.2,0.5c-0.4,0.3-0.7,0.7-0.7,1.3
	c0,0.5,0.1,0.8,0.4,1.1C98.3,173.9,98.7,174,99.2,174z M110.7,167.1v0.5l-1.5,0.1c0.4,0.5,0.6,1.1,0.6,1.7c0,0.7-0.2,1.3-0.7,1.7
	c-0.5,0.4-1.1,0.7-1.9,0.7c-0.3,0-0.6,0-0.7,0c-0.3,0.1-0.5,0.3-0.6,0.5s-0.2,0.4-0.2,0.6c0,0.2,0.1,0.4,0.3,0.5
	c0.2,0.1,0.5,0.2,0.9,0.2h1.3c0.8,0,1.4,0.2,1.9,0.5c0.4,0.3,0.6,0.8,0.6,1.4c0,0.8-0.3,1.4-1,1.8c-0.6,0.4-1.5,0.6-2.7,0.6
	c-0.9,0-1.7-0.2-2.2-0.5c-0.5-0.4-0.8-0.9-0.8-1.5c0-0.5,0.2-0.9,0.5-1.3c0.3-0.3,0.7-0.6,1.3-0.7c-0.2-0.1-0.4-0.2-0.5-0.4
	c-0.1-0.2-0.2-0.4-0.2-0.6c0-0.5,0.3-0.9,1-1.3c-0.4-0.2-0.8-0.5-1-0.8c-0.2-0.4-0.4-0.8-0.4-1.3c0-0.7,0.2-1.3,0.7-1.8
	c0.5-0.4,1.1-0.7,1.9-0.7c0.5,0,0.9,0,1.1,0.1H110.7z M104.7,175.8c0,1,0.8,1.5,2.3,1.5c2,0,2.9-0.6,2.9-1.9c0-0.4-0.2-0.8-0.5-1
	c-0.3-0.2-0.8-0.3-1.5-0.3h-1.2C105.3,174.2,104.7,174.7,104.7,175.8z M105.2,169.4c0,0.6,0.2,1,0.5,1.3c0.3,0.3,0.8,0.5,1.4,0.5
	c0.6,0,1.1-0.2,1.4-0.5c0.3-0.3,0.5-0.8,0.5-1.4c0-0.6-0.2-1.1-0.5-1.4c-0.3-0.3-0.8-0.5-1.4-0.5c-0.6,0-1.1,0.2-1.4,0.5
	C105.4,168.3,105.2,168.8,105.2,169.4z M142.4,164.5h0.8l-3.7,10h-0.6l-3.7-10h0.7l2.5,6.8c0.4,1,0.6,1.8,0.8,2.3
	c0.1-0.3,0.3-0.9,0.5-1.6L142.4,164.5z M148.9,174.5l-0.2-1.2h-0.1c-0.4,0.5-0.8,0.8-1.2,1c-0.4,0.2-0.9,0.3-1.4,0.3
	c-0.7,0-1.3-0.2-1.7-0.6c-0.4-0.4-0.6-0.9-0.6-1.6c0-0.7,0.3-1.3,0.9-1.7c0.6-0.4,1.5-0.6,2.6-0.6l1.4,0v-0.5c0-0.7-0.1-1.2-0.4-1.6
	c-0.3-0.4-0.8-0.5-1.4-0.5c-0.7,0-1.4,0.2-2.1,0.6l-0.3-0.6c0.8-0.4,1.6-0.6,2.4-0.6c0.8,0,1.4,0.2,1.8,0.6c0.4,0.4,0.6,1.1,0.6,2
	v4.9H148.9z M146.1,174c0.8,0,1.4-0.2,1.9-0.7c0.5-0.5,0.7-1.1,0.7-1.9v-0.7l-1.3,0.1c-1,0-1.8,0.2-2.2,0.5
	c-0.4,0.3-0.7,0.7-0.7,1.3c0,0.5,0.1,0.8,0.4,1.1C145.2,173.9,145.6,174,146.1,174z M146,165.9c0.3-0.4,0.7-0.8,1-1.2
	c0.3-0.4,0.5-0.7,0.7-1h1v0.1c-0.2,0.2-0.4,0.6-0.8,0.9c-0.4,0.4-0.8,0.8-1.3,1.2H146V165.9z M154.7,166.9c0.3,0,0.7,0,1,0.1
	l-0.1,0.7c-0.3-0.1-0.6-0.1-1-0.1c-0.6,0-1.2,0.3-1.6,0.8c-0.4,0.5-0.6,1.2-0.6,2v4.1h-0.7v-7.4h0.6l0.1,1.3h0
	c0.3-0.5,0.6-0.9,1-1.2S154.2,166.9,154.7,166.9z M163.4,170.8c0,1.2-0.3,2.2-0.9,2.8s-1.4,1-2.4,1c-0.7,0-1.2-0.2-1.7-0.5
	s-0.9-0.8-1.1-1.4s-0.4-1.3-0.4-2c0-1.2,0.3-2.2,0.9-2.8c0.6-0.7,1.4-1,2.4-1c1,0,1.8,0.3,2.4,1
	C163.1,168.6,163.4,169.6,163.4,170.8z M157.5,170.8c0,1,0.2,1.8,0.7,2.4c0.4,0.6,1.1,0.9,1.9,0.9s1.5-0.3,1.9-0.9
	c0.4-0.6,0.7-1.4,0.7-2.4c0-1-0.2-1.8-0.7-2.4c-0.5-0.6-1.1-0.8-1.9-0.8s-1.5,0.3-1.9,0.8C157.7,168.9,157.5,169.7,157.5,170.8z
	 M170,172.6c0,0.7-0.3,1.2-0.8,1.5c-0.5,0.4-1.2,0.5-2.2,0.5c-1,0-1.8-0.2-2.4-0.5v-0.7c0.7,0.4,1.5,0.6,2.4,0.6
	c0.7,0,1.3-0.1,1.7-0.4c0.4-0.2,0.6-0.6,0.6-1c0-0.4-0.2-0.7-0.5-0.9c-0.3-0.3-0.8-0.5-1.5-0.8c-0.7-0.3-1.3-0.5-1.6-0.7
	s-0.5-0.4-0.7-0.7c-0.2-0.2-0.2-0.5-0.2-0.9c0-0.6,0.2-1,0.7-1.3c0.5-0.3,1.1-0.5,2-0.5c0.8,0,1.6,0.2,2.3,0.5l-0.3,0.6
	c-0.7-0.3-1.4-0.5-2-0.5c-0.6,0-1.1,0.1-1.4,0.3c-0.4,0.2-0.5,0.5-0.5,0.8c0,0.4,0.1,0.7,0.4,0.9c0.3,0.2,0.8,0.5,1.6,0.8
	c0.7,0.2,1.2,0.5,1.5,0.7c0.3,0.2,0.5,0.4,0.7,0.7C170,171.9,170,172.2,170,172.6z M181.2,174.5v-4.9c0-0.7-0.1-1.3-0.4-1.6
	c-0.3-0.3-0.7-0.5-1.3-0.5c-0.8,0-1.3,0.2-1.7,0.6c-0.4,0.4-0.5,1.1-0.5,2v4.4h-0.7v-5.1c0-1.3-0.6-1.9-1.7-1.9
	c-0.8,0-1.3,0.2-1.7,0.7c-0.4,0.5-0.5,1.2-0.5,2.2v4.1H172v-7.4h0.6l0.1,1h0c0.2-0.4,0.5-0.7,0.9-0.9s0.8-0.3,1.3-0.3
	c1.2,0,1.9,0.4,2.3,1.3h0c0.2-0.4,0.6-0.8,1-1c0.4-0.2,0.9-0.3,1.4-0.3c0.8,0,1.4,0.2,1.8,0.7c0.4,0.4,0.6,1.1,0.6,2.1v4.9H181.2z
	 M188.8,174.5l-0.2-1.2h-0.1c-0.4,0.5-0.8,0.8-1.2,1c-0.4,0.2-0.9,0.3-1.4,0.3c-0.7,0-1.3-0.2-1.7-0.6c-0.4-0.4-0.6-0.9-0.6-1.6
	c0-0.7,0.3-1.3,0.9-1.7c0.6-0.4,1.5-0.6,2.6-0.6l1.4,0v-0.5c0-0.7-0.1-1.2-0.4-1.6c-0.3-0.4-0.8-0.5-1.4-0.5c-0.7,0-1.4,0.2-2.1,0.6
	l-0.3-0.6c0.8-0.4,1.6-0.6,2.4-0.6c0.8,0,1.4,0.2,1.8,0.6c0.4,0.4,0.6,1.1,0.6,2v4.9H188.8z M186.1,174c0.8,0,1.4-0.2,1.9-0.7
	c0.5-0.5,0.7-1.1,0.7-1.9v-0.7l-1.3,0.1c-1,0-1.8,0.2-2.2,0.5c-0.4,0.3-0.7,0.7-0.7,1.3c0,0.5,0.1,0.8,0.4,1.1
	C185.2,173.9,185.6,174,186.1,174z M197.5,167.1v0.5l-1.5,0.1c0.4,0.5,0.6,1.1,0.6,1.7c0,0.7-0.2,1.3-0.7,1.7
	c-0.5,0.4-1.1,0.7-1.9,0.7c-0.3,0-0.6,0-0.7,0c-0.3,0.1-0.5,0.3-0.6,0.5s-0.2,0.4-0.2,0.6c0,0.2,0.1,0.4,0.3,0.5
	c0.2,0.1,0.5,0.2,0.9,0.2h1.3c0.8,0,1.4,0.2,1.9,0.5c0.4,0.3,0.6,0.8,0.6,1.4c0,0.8-0.3,1.4-1,1.8c-0.6,0.4-1.5,0.6-2.7,0.6
	c-0.9,0-1.7-0.2-2.2-0.5c-0.5-0.4-0.8-0.9-0.8-1.5c0-0.5,0.2-0.9,0.5-1.3c0.3-0.3,0.7-0.6,1.3-0.7c-0.2-0.1-0.4-0.2-0.5-0.4
	c-0.1-0.2-0.2-0.4-0.2-0.6c0-0.5,0.3-0.9,1-1.3c-0.4-0.2-0.8-0.5-1-0.8c-0.2-0.4-0.4-0.8-0.4-1.3c0-0.7,0.2-1.3,0.7-1.8
	c0.5-0.4,1.1-0.7,1.9-0.7c0.5,0,0.9,0,1.1,0.1H197.5z M191.5,175.8c0,1,0.8,1.5,2.3,1.5c2,0,2.9-0.6,2.9-1.9c0-0.4-0.2-0.8-0.5-1
	c-0.3-0.2-0.8-0.3-1.5-0.3h-1.2C192.2,174.2,191.5,174.7,191.5,175.8z M192.1,169.4c0,0.6,0.2,1,0.5,1.3c0.3,0.3,0.8,0.5,1.4,0.5
	c0.6,0,1.1-0.2,1.4-0.5c0.3-0.3,0.5-0.8,0.5-1.4c0-0.6-0.2-1.1-0.5-1.4c-0.3-0.3-0.8-0.5-1.4-0.5c-0.6,0-1.1,0.2-1.4,0.5
	C192.3,168.3,192.1,168.8,192.1,169.4z M205.2,170.8c0,1.2-0.3,2.2-0.9,2.8s-1.4,1-2.4,1c-0.7,0-1.2-0.2-1.7-0.5s-0.9-0.8-1.1-1.4
	s-0.4-1.3-0.4-2c0-1.2,0.3-2.2,0.9-2.8c0.6-0.7,1.4-1,2.4-1c1,0,1.8,0.3,2.4,1C204.9,168.6,205.2,169.6,205.2,170.8z M199.3,170.8
	c0,1,0.2,1.8,0.7,2.4c0.4,0.6,1.1,0.9,1.9,0.9s1.5-0.3,1.9-0.9c0.4-0.6,0.7-1.4,0.7-2.4c0-1-0.2-1.8-0.7-2.4
	c-0.5-0.6-1.1-0.8-1.9-0.8s-1.5,0.3-1.9,0.8C199.6,168.9,199.3,169.7,199.3,170.8z M209.2,174c0.4,0,0.8,0,1.1-0.1v0.5
	c-0.3,0.1-0.7,0.2-1.1,0.2c-0.7,0-1.1-0.2-1.5-0.5c-0.3-0.4-0.5-0.9-0.5-1.7v-4.8h-1.1v-0.4l1.1-0.3l0.3-1.7h0.3v1.8h2.2v0.6H208
	v4.7c0,0.6,0.1,1,0.3,1.3S208.8,174,209.2,174z M143,184.8c0,1.2-0.3,2.2-0.9,2.8s-1.4,1-2.4,1c-0.7,0-1.2-0.2-1.7-0.5
	s-0.9-0.8-1.1-1.4s-0.4-1.3-0.4-2c0-1.2,0.3-2.2,0.9-2.8c0.6-0.7,1.4-1,2.4-1c1,0,1.8,0.3,2.4,1C142.7,182.6,143,183.6,143,184.8z
	 M137.1,184.8c0,1,0.2,1.8,0.7,2.4c0.4,0.6,1.1,0.9,1.9,0.9s1.5-0.3,1.9-0.9c0.4-0.6,0.7-1.4,0.7-2.4c0-1-0.2-1.8-0.7-2.4
	c-0.5-0.6-1.1-0.8-1.9-0.8s-1.5,0.3-1.9,0.8C137.4,182.9,137.1,183.7,137.1,184.8z M138,179c0-0.2,0-0.4,0.1-0.5
	c0.1-0.1,0.2-0.1,0.3-0.1c0.3,0,0.4,0.2,0.4,0.6c0,0.4-0.1,0.6-0.4,0.6C138.1,179.6,138,179.4,138,179z M140.6,179
	c0-0.2,0-0.4,0.1-0.5c0.1-0.1,0.2-0.1,0.3-0.1c0.3,0,0.4,0.2,0.4,0.6c0,0.4-0.1,0.6-0.4,0.6C140.7,179.6,140.6,179.4,140.6,179z
	 M146.7,188.5l-2.9-7.4h0.7l1.9,5.1c0.3,0.6,0.4,1.2,0.6,1.7h0c0.2-0.6,0.4-1.2,0.6-1.7l1.9-5h0.7l-2.9,7.4H146.7z M154.5,188.6
	c-1.1,0-1.9-0.3-2.5-1c-0.6-0.7-0.9-1.6-0.9-2.8c0-1.2,0.3-2.1,0.9-2.8s1.4-1.1,2.4-1.1c0.9,0,1.6,0.3,2.1,0.9
	c0.5,0.6,0.8,1.4,0.8,2.5v0.5h-5.4c0,1,0.2,1.8,0.7,2.3c0.5,0.5,1.1,0.8,2,0.8c0.4,0,0.8,0,1.1-0.1c0.3-0.1,0.7-0.2,1.2-0.4v0.6
	c-0.4,0.2-0.8,0.3-1.2,0.4C155.3,188.6,154.9,188.6,154.5,188.6z M154.3,181.5c-0.7,0-1.3,0.2-1.7,0.7c-0.4,0.5-0.7,1.2-0.8,2h4.6
	c0-0.9-0.2-1.5-0.6-2C155.5,181.8,155,181.5,154.3,181.5z M163.8,188.5h-5.3v-0.4l4.4-6.4h-4.1v-0.6h5v0.4l-4.4,6.4h4.5V188.5z
	 M171.8,184.8c0,1.2-0.3,2.2-0.9,2.8s-1.4,1-2.4,1c-0.7,0-1.2-0.2-1.7-0.5s-0.9-0.8-1.1-1.4s-0.4-1.3-0.4-2c0-1.2,0.3-2.2,0.9-2.8
	c0.6-0.7,1.4-1,2.4-1c1,0,1.8,0.3,2.4,1C171.5,182.6,171.8,183.6,171.8,184.8z M165.9,184.8c0,1,0.2,1.8,0.7,2.4
	c0.4,0.6,1.1,0.9,1.9,0.9s1.5-0.3,1.9-0.9c0.4-0.6,0.7-1.4,0.7-2.4c0-1-0.2-1.8-0.7-2.4c-0.5-0.6-1.1-0.8-1.9-0.8s-1.5,0.3-1.9,0.8
	C166.1,182.9,165.9,183.7,165.9,184.8z M166.7,179.9c0.1-0.2,0.3-0.4,0.5-0.6s0.4-0.8,0.8-1.5h0.9v0.1c-0.6,0.9-1.2,1.6-1.7,2.1
	h-0.5V179.9z M169,179.9c0.1-0.2,0.3-0.4,0.5-0.6s0.4-0.8,0.8-1.5h0.9v0.1c-0.6,0.9-1.2,1.6-1.7,2.1H169V179.9z M180.6,180.9
	c1,0,1.8,0.3,2.3,1c0.5,0.7,0.8,1.6,0.8,2.9c0,1.2-0.3,2.2-0.8,2.9c-0.6,0.7-1.3,1-2.3,1c-0.5,0-1-0.1-1.4-0.3s-0.8-0.5-1-0.9h-0.1
	l-0.2,1.1h-0.4v-10.6h0.7v2.7c0,0.4,0,0.8,0,1.1l0,0.6h0c0.3-0.4,0.6-0.8,1-1C179.6,181,180,180.9,180.6,180.9z M180.6,181.5
	c-0.9,0-1.5,0.3-1.9,0.8c-0.4,0.5-0.6,1.3-0.6,2.5v0.1c0,1.1,0.2,1.9,0.6,2.4c0.4,0.5,1,0.7,1.8,0.7c0.8,0,1.4-0.3,1.8-0.9
	c0.4-0.6,0.6-1.4,0.6-2.4C183,182.6,182.2,181.5,180.6,181.5z M188.8,188.6c-1.1,0-1.9-0.3-2.5-1c-0.6-0.7-0.9-1.6-0.9-2.8
	c0-1.2,0.3-2.1,0.9-2.8s1.4-1.1,2.4-1.1c0.9,0,1.6,0.3,2.1,0.9c0.5,0.6,0.8,1.4,0.8,2.5v0.5h-5.4c0,1,0.2,1.8,0.7,2.3
	c0.5,0.5,1.1,0.8,2,0.8c0.4,0,0.8,0,1.1-0.1c0.3-0.1,0.7-0.2,1.2-0.4v0.6c-0.4,0.2-0.8,0.3-1.2,0.4
	C189.6,188.6,189.2,188.6,188.8,188.6z M188.6,181.5c-0.7,0-1.3,0.2-1.7,0.7c-0.4,0.5-0.7,1.2-0.8,2h4.6c0-0.9-0.2-1.5-0.6-2
	C189.8,181.8,189.3,181.5,188.6,181.5z M194.2,188.5h-0.7v-10.6h0.7V188.5z M201.3,186.6c0,0.7-0.3,1.2-0.8,1.5
	c-0.5,0.4-1.2,0.5-2.2,0.5c-1,0-1.8-0.2-2.4-0.5v-0.7c0.7,0.4,1.5,0.6,2.4,0.6c0.7,0,1.3-0.1,1.7-0.4c0.4-0.2,0.6-0.6,0.6-1
	c0-0.4-0.2-0.7-0.5-0.9c-0.3-0.3-0.8-0.5-1.5-0.8c-0.7-0.3-1.3-0.5-1.6-0.7s-0.5-0.4-0.7-0.7c-0.2-0.2-0.2-0.5-0.2-0.9
	c0-0.6,0.2-1,0.7-1.3c0.5-0.3,1.1-0.5,2-0.5c0.8,0,1.6,0.2,2.3,0.5l-0.3,0.6c-0.7-0.3-1.4-0.5-2-0.5c-0.6,0-1.1,0.1-1.4,0.3
	c-0.4,0.2-0.5,0.5-0.5,0.8c0,0.4,0.1,0.7,0.4,0.9c0.3,0.2,0.8,0.5,1.6,0.8c0.7,0.2,1.2,0.5,1.5,0.7c0.3,0.2,0.5,0.4,0.7,0.7
	C201.2,185.9,201.3,186.2,201.3,186.6z M209.3,184.8c0,1.2-0.3,2.2-0.9,2.8s-1.4,1-2.4,1c-0.7,0-1.2-0.2-1.7-0.5s-0.9-0.8-1.1-1.4
	s-0.4-1.3-0.4-2c0-1.2,0.3-2.2,0.9-2.8c0.6-0.7,1.4-1,2.4-1c1,0,1.8,0.3,2.4,1C209,182.6,209.3,183.6,209.3,184.8z M203.5,184.8
	c0,1,0.2,1.8,0.7,2.4c0.4,0.6,1.1,0.9,1.9,0.9s1.5-0.3,1.9-0.9c0.4-0.6,0.7-1.4,0.7-2.4c0-1-0.2-1.8-0.7-2.4
	c-0.5-0.6-1.1-0.8-1.9-0.8s-1.5,0.3-1.9,0.8C203.7,182.9,203.5,183.7,203.5,184.8z M204.3,179.9c0.1-0.2,0.3-0.4,0.5-0.6
	s0.4-0.8,0.8-1.5h0.9v0.1c-0.6,0.9-1.2,1.6-1.7,2.1h-0.5V179.9z M206.6,179.9c0.1-0.2,0.3-0.4,0.5-0.6s0.4-0.8,0.8-1.5h0.9v0.1
	c-0.6,0.9-1.2,1.6-1.7,2.1h-0.5V179.9z M244.8,174.5h-0.9l-3.8-5.3l-1.3,1.2v4.1H238v-10h0.7v5.2l1.1-1.1l3.9-4.1h0.9l-4.1,4.2
	L244.8,174.5z M246.6,167.1v4.8c0,0.7,0.2,1.3,0.5,1.6c0.3,0.3,0.8,0.5,1.5,0.5c0.9,0,1.5-0.2,2-0.7c0.4-0.4,0.6-1.2,0.6-2.2v-4.1
	h0.7v7.4h-0.6l-0.1-1h0c-0.5,0.8-1.3,1.2-2.6,1.2c-1.7,0-2.5-0.9-2.5-2.7v-4.9H246.6z M247.1,165c0-0.2,0-0.4,0.1-0.5
	c0.1-0.1,0.2-0.1,0.3-0.1c0.3,0,0.4,0.2,0.4,0.6c0,0.4-0.1,0.6-0.4,0.6C247.3,165.6,247.1,165.4,247.1,165z M249.8,165
	c0-0.2,0-0.4,0.1-0.5c0.1-0.1,0.2-0.1,0.3-0.1c0.3,0,0.4,0.2,0.4,0.6c0,0.4-0.1,0.6-0.4,0.6C249.9,165.6,249.8,165.4,249.8,165z
	 M254.9,174.5h-0.7v-10.6h0.7V174.5z M262,172.6c0,0.7-0.3,1.2-0.8,1.5c-0.5,0.4-1.2,0.5-2.2,0.5c-1,0-1.8-0.2-2.4-0.5v-0.7
	c0.7,0.4,1.5,0.6,2.4,0.6c0.7,0,1.3-0.1,1.7-0.4c0.4-0.2,0.6-0.6,0.6-1c0-0.4-0.2-0.7-0.5-0.9c-0.3-0.3-0.8-0.5-1.5-0.8
	c-0.7-0.3-1.3-0.5-1.6-0.7s-0.5-0.4-0.7-0.7c-0.2-0.2-0.2-0.5-0.2-0.9c0-0.6,0.2-1,0.7-1.3c0.5-0.3,1.1-0.5,2-0.5
	c0.8,0,1.6,0.2,2.3,0.5l-0.3,0.6c-0.7-0.3-1.4-0.5-2-0.5c-0.6,0-1.1,0.1-1.4,0.3c-0.4,0.2-0.5,0.5-0.5,0.8c0,0.4,0.1,0.7,0.4,0.9
	c0.3,0.2,0.8,0.5,1.6,0.8c0.7,0.2,1.2,0.5,1.5,0.7c0.3,0.2,0.5,0.4,0.7,0.7C262,171.9,262,172.2,262,172.6z M270.1,170.8
	c0,1.2-0.3,2.2-0.9,2.8s-1.4,1-2.4,1c-0.7,0-1.2-0.2-1.7-0.5s-0.9-0.8-1.1-1.4s-0.4-1.3-0.4-2c0-1.2,0.3-2.2,0.9-2.8
	c0.6-0.7,1.4-1,2.4-1c1,0,1.8,0.3,2.4,1C269.8,168.6,270.1,169.6,270.1,170.8z M264.2,170.8c0,1,0.2,1.8,0.7,2.4
	c0.4,0.6,1.1,0.9,1.9,0.9s1.5-0.3,1.9-0.9c0.4-0.6,0.7-1.4,0.7-2.4c0-1-0.2-1.8-0.7-2.4c-0.5-0.6-1.1-0.8-1.9-0.8s-1.5,0.3-1.9,0.8
	C264.4,168.9,264.2,169.7,264.2,170.8z M265,165.9c0.1-0.2,0.3-0.4,0.5-0.6s0.4-0.8,0.8-1.5h0.9v0.1c-0.6,0.9-1.2,1.6-1.7,2.1H265
	V165.9z M267.3,165.9c0.1-0.2,0.3-0.4,0.5-0.6s0.4-0.8,0.8-1.5h0.9v0.1c-0.6,0.9-1.2,1.6-1.7,2.1h-0.5V165.9z"/>
<g>
	<g>
		<line style="fill:none;stroke:#222220;stroke-miterlimit:10;" x1="9.6" y1="45.5" x2="9.6" y2="46"/>
		
			<line style="fill:none;stroke:#222220;stroke-miterlimit:10;stroke-dasharray:0.8966,4.4828;" x1="9.6" y1="50.5" x2="9.6" y2="69.8"/>
		<line style="fill:none;stroke:#222220;stroke-miterlimit:10;" x1="9.6" y1="72" x2="9.6" y2="72.5"/>
	</g>
</g>
<g>
	<g>
		<line style="fill:none;stroke:#222220;stroke-miterlimit:10;" x1="34.6" y1="46.5" x2="34.6" y2="47"/>
		
			<line style="fill:none;stroke:#222220;stroke-miterlimit:10;stroke-dasharray:1.0435,5.2174;" x1="34.6" y1="52.2" x2="34.6" y2="68.4"/>
		<line style="fill:none;stroke:#222220;stroke-miterlimit:10;" x1="34.6" y1="71" x2="34.6" y2="71.5"/>
	</g>
</g>
<line style="fill:none;stroke:#222220;stroke-miterlimit:10;stroke-dasharray:1,5;" x1="38.5" y1="45" x2="237.5" y2="45"/>
<line style="fill:none;stroke:#222220;stroke-miterlimit:10;stroke-dasharray:1,5;" x1="38.5" y1="111" x2="235.5" y2="111"/>
<path style="fill:#336222;stroke:#222220;stroke-miterlimit:10;" d="M98,82.2c-6.9,0-12.5-5.6-12.5-12.5V140c0,6.6,5.4,12,12,12h1
	c6.6,0,12-5.4,12-12V69.7C110.5,76.6,104.9,82.2,98,82.2z"/>
<path style="fill:#5BAE3D;stroke:#222220;stroke-miterlimit:10;" d="M173.8,82.2c-6.9,0-12.5-5.6-12.5-12.5V140c0,6.6,5.4,12,12,12
	h1c6.6,0,12-5.4,12-12V69.7C186.3,76.6,180.7,82.2,173.8,82.2z"/>
<path style="fill:#9DCE8B;stroke:#222220;stroke-miterlimit:10;" d="M249.6,82.2c-6.9,0-12.5-5.6-12.5-12.5V140c0,6.6,5.4,12,12,12
	h1c6.6,0,12-5.4,12-12V69.7C262.1,76.6,256.5,82.2,249.6,82.2z"/>
<circle style="fill:#336222;stroke:#222220;stroke-width:1.0417;stroke-miterlimit:10;" cx="136.9" cy="45.5" r="12.5"/>
<circle style="fill:#5BAE3D;stroke:#222220;stroke-width:1.0417;stroke-miterlimit:10;" cx="251.6" cy="45.5" r="12.5"/>
<path style="fill:#ADAEA5;stroke:#222220;stroke-miterlimit:10;" d="M22.1,82c-6.9,0-12.5-5.6-12.5-12.5v70.3c0,6.6,5.4,12,12,12h1
	c6.6,0,12-5.4,12-12V69.5C34.6,76.4,29,82,22.1,82z"/>
<circle style="fill:#ADAEA5;stroke:#222220;stroke-width:1.0417;stroke-miterlimit:10;" cx="22.1" cy="45.5" r="12.5"/>
<line style="fill:none;stroke:#222220;stroke-miterlimit:10;stroke-dasharray:1,5;" x1="97.6" y1="110.5" x2="97.6" y2="162.5"/>
<line style="fill:none;stroke:#222220;stroke-miterlimit:10;stroke-dasharray:1,5;" x1="173.1" y1="110.5" x2="173.1" y2="162.5"/>
<line style="fill:none;stroke:#222220;stroke-miterlimit:10;stroke-dasharray:1,5;" x1="250.1" y1="110.5" x2="250.1" y2="162.5"/>
<line style="fill:none;stroke:#222220;stroke-miterlimit:10;stroke-dasharray:1,3;" x1="137.1" y1="45" x2="137.1" y2="23"/>
<line style="fill:none;stroke:#222220;stroke-miterlimit:10;stroke-dasharray:1,3;" x1="252.1" y1="45.5" x2="252.1" y2="23.5"/>
</svg>
