<?xml version="1.0" encoding="utf-8"?>
<!-- Generator: Adobe Illustrator 22.0.1, SVG Export Plug-In . SVG Version: 6.00 Build 0)  -->
<svg version="1.1" id="Layer_1" xmlns="http://www.w3.org/2000/svg" xmlns:xlink="http://www.w3.org/1999/xlink" x="0px"
	y="0px" viewBox="0 0 620 515" style="enable-background:new 0 0 620 515;" xml:space="preserve">
	<style type="text/css">
		.st0 {
			fill: none;
			stroke: #F4F4F4;
			stroke-width: 2;
			stroke-miterlimit: 10;
		}

		.st1 {
			fill: #D44848;
		}

		.st2 {
			fill: #F4F4F4;
		}

		.st3 {
			fill: #D44848;
			stroke: #F4F4F4;
			stroke-width: 2;
			stroke-miterlimit: 10;
		}

		.st4 {
			fill: #57A298;
		}

		.st5 {
			fill: #82837c;
			stroke: #F4F4F4;
			stroke-width: 2;
			stroke-miterlimit: 10;
		}

		.st6 {
			fill: #82837c;
		}
	</style>
	<g>


		<g>
			<g>
				<g>
					<g>
						<path class="st0" d="M27.1,22.4h-0.4c-3.3,0-5.9,2.6-5.9,5.9c0,0.1,0,0.1,0,0.2 M94.8,33v-4.7c0-3.3-2.6-5.9-5.9-5.9
						 M27.1,22.4h61.8" />
						<g>
							<polygon class="st1" points="33.4,34 82.3,19.7 86.5,34 						" />
							<path class="st2"
								d="M81.7,21L85.2,33H40.4L81.7,21 M83,18.5L26.4,35h61.4L83,18.5L83,18.5z" />
						</g>
						<path class="st3" d="M96.4,33H25.5c-2.5,0-4.6-2-4.7-4.5c0,0.1,0,0.1,0,0.2v55.5c0,3.5,2.8,6.3,6.3,6.3H96
						c3.5,0,6.3-2.8,6.3-6.3V38.9C102.3,35.7,99.7,33,96.4,33z" />
						<path class="st3" d="M105.1,73.2h-28c-3.5,0-6.3-2.8-6.3-6.3V56.7c0-3.5,2.8-6.3,6.3-6.3h28c1.7,0,3.2,1.4,3.2,3.2V70
						C108.2,71.8,106.8,73.2,105.1,73.2z" />
						<circle class="st3" cx="80.6" cy="61.8" r="4.3" />
					</g>
					<g>
						<path class="st0" d="M149.8,22.4h-0.4c-3.3,0-5.9,2.6-5.9,5.9c0,0.1,0,0.1,0,0.2 M217.6,33v-4.7c0-3.3-2.6-5.9-5.9-5.9
						 M149.8,22.4h61.8" />
						<g>
							<polygon class="st1" points="156.2,34 205.1,19.7 209.3,34 						" />
							<path class="st2"
								d="M204.4,21l3.5,12.1h-44.8L204.4,21 M205.8,18.5L149.2,35h61.4L205.8,18.5L205.8,18.5z" />
						</g>
						<path class="st3" d="M219.1,33h-70.9c-2.5,0-4.6-2-4.7-4.5c0,0.1,0,0.1,0,0.2v55.5c0,3.5,2.8,6.3,6.3,6.3h68.9
						c3.5,0,6.3-2.8,6.3-6.3V38.9C225.1,35.7,222.4,33,219.1,33z" />
						<path class="st3" d="M227.8,73.2h-28c-3.5,0-6.3-2.8-6.3-6.3V56.7c0-3.5,2.8-6.3,6.3-6.3h28c1.7,0,3.2,1.4,3.2,3.2V70
						C231,71.8,229.6,73.2,227.8,73.2z" />
						<circle class="st3" cx="203.4" cy="61.8" r="4.3" />
					</g>
					<g>
						<path class="st0" d="M272.6,22.4h-0.4c-3.3,0-5.9,2.6-5.9,5.9c0,0.1,0,0.1,0,0.2 M340.3,33v-4.7c0-3.3-2.6-5.9-5.9-5.9
						 M272.6,22.4h61.8" />
						<g>
							<polygon class="st1" points="278.9,34 327.8,19.7 332,34 						" />
							<path class="st2"
								d="M327.2,21l3.5,12.1h-44.8L327.2,21 M328.5,18.5L271.9,35h61.4L328.5,18.5L328.5,18.5z" />
						</g>
						<path class="st3" d="M341.9,33H271c-2.5,0-4.6-2-4.7-4.5c0,0.1,0,0.1,0,0.2v55.5c0,3.5,2.8,6.3,6.3,6.3h68.9
						c3.5,0,6.3-2.8,6.3-6.3V38.9C347.8,35.7,345.2,33,341.9,33z" />
						<path class="st3" d="M350.6,73.2h-28c-3.5,0-6.3-2.8-6.3-6.3V56.7c0-3.5,2.8-6.3,6.3-6.3h28c1.7,0,3.2,1.4,3.2,3.2V70
						C353.7,71.8,352.3,73.2,350.6,73.2z" />
						<circle class="st3" cx="326.1" cy="61.8" r="4.3" />
					</g>
					<g>
						<path class="st0" d="M395.3,22.4h-0.4c-3.3,0-5.9,2.6-5.9,5.9c0,0.1,0,0.1,0,0.2 M463.1,33v-4.7c0-3.3-2.6-5.9-5.9-5.9
						 M395.3,22.4h61.8" />
						<g>
							<polygon class="st1" points="401.7,34 450.6,19.7 454.8,34 						" />
							<path class="st2"
								d="M449.9,21l3.5,12.1h-44.8L449.9,21 M451.3,18.5L394.7,35h61.4L451.3,18.5L451.3,18.5z" />
						</g>
						<path class="st3" d="M464.6,33h-70.9c-2.5,0-4.6-2-4.7-4.5c0,0.1,0,0.1,0,0.2v55.5c0,3.5,2.8,6.3,6.3,6.3h68.9
						c3.5,0,6.3-2.8,6.3-6.3V38.9C470.6,35.7,467.9,33,464.6,33z" />
						<path class="st3" d="M473.3,73.2h-28c-3.5,0-6.3-2.8-6.3-6.3V56.7c0-3.5,2.8-6.3,6.3-6.3h28c1.7,0,3.2,1.4,3.2,3.2V70
						C476.5,71.8,475.1,73.2,473.3,73.2z" />
						<circle class="st3" cx="448.9" cy="61.8" r="4.3" />
					</g>
					<g>
						<path class="st0" d="M518.1,22.4h-0.4c-3.3,0-5.9,2.6-5.9,5.9c0,0.1,0,0.1,0,0.2 M585.8,33v-4.7c0-3.3-2.6-5.9-5.9-5.9
						 M518.1,22.4h61.8" />
						<g>
							<polygon class="st1" points="524.4,34 573.3,19.7 577.5,34 						" />
							<path class="st2"
								d="M572.7,21l3.5,12.1h-44.8L572.7,21 M574,18.5L517.4,35h61.4L574,18.5L574,18.5z" />
						</g>
						<path class="st3" d="M587.4,33h-70.9c-2.5,0-4.6-2-4.7-4.5c0,0.1,0,0.1,0,0.2v55.5c0,3.5,2.8,6.3,6.3,6.3H587
						c3.5,0,6.3-2.8,6.3-6.3V38.9C593.3,35.7,590.7,33,587.4,33z" />
						<path class="st3" d="M596.1,73.2h-28c-3.5,0-6.3-2.8-6.3-6.3V56.7c0-3.5,2.8-6.3,6.3-6.3h28c1.7,0,3.2,1.4,3.2,3.2V70
						C599.2,71.8,597.8,73.2,596.1,73.2z" />
						<circle class="st3" cx="571.6" cy="61.8" r="4.3" />
					</g>
					<g>
						<path class="st0" d="M27.1,123.6h-0.4c-3.3,0-5.9,2.6-5.9,5.9c0,0.1,0,0.1,0,0.2 M94.8,134.3v-4.7c0-3.3-2.6-5.9-5.9-5.9
						 M27.1,123.6h61.8" />
						<g>
							<polygon class="st1" points="33.4,135.3 82.3,121 86.5,135.3 						" />
							<path class="st2"
								d="M81.7,122.2l3.5,12.1H40.4L81.7,122.2 M83,119.7l-56.6,16.5h61.4L83,119.7L83,119.7z" />
						</g>
						<path class="st3" d="M96.4,134.3H25.5c-2.5,0-4.6-2-4.7-4.5c0,0.1,0,0.1,0,0.2v55.5c0,3.5,2.8,6.3,6.3,6.3H96
						c3.5,0,6.3-2.8,6.3-6.3v-45.3C102.3,136.9,99.7,134.3,96.4,134.3z" />
						<path class="st3" d="M105.1,174.4h-28c-3.5,0-6.3-2.8-6.3-6.3v-10.2c0-3.5,2.8-6.3,6.3-6.3h28c1.7,0,3.2,1.4,3.2,3.2v16.5
						C108.2,173,106.8,174.4,105.1,174.4z" />
						<circle class="st3" cx="80.6" cy="163" r="4.3" />
					</g>
					<g>
						<path class="st0" d="M149.8,123.6h-0.4c-3.3,0-5.9,2.6-5.9,5.9c0,0.1,0,0.1,0,0.2 M217.6,134.3v-4.7c0-3.3-2.6-5.9-5.9-5.9
						 M149.8,123.6h61.8" />
						<g>
							<polygon class="st1" points="156.2,135.3 205.1,121 209.3,135.3 						" />
							<path class="st2"
								d="M204.4,122.2l3.5,12.1h-44.8L204.4,122.2 M205.8,119.7l-56.6,16.5h61.4L205.8,119.7L205.8,119.7z" />
						</g>
						<path class="st3" d="M219.1,134.3h-70.9c-2.5,0-4.6-2-4.7-4.5c0,0.1,0,0.1,0,0.2v55.5c0,3.5,2.8,6.3,6.3,6.3h68.9
						c3.5,0,6.3-2.8,6.3-6.3v-45.3C225.1,136.9,222.4,134.3,219.1,134.3z" />
						<path class="st3" d="M227.8,174.4h-28c-3.5,0-6.3-2.8-6.3-6.3v-10.2c0-3.5,2.8-6.3,6.3-6.3h28c1.7,0,3.2,1.4,3.2,3.2v16.5
						C231,173,229.6,174.4,227.8,174.4z" />
						<circle class="st3" cx="203.4" cy="163" r="4.3" />
					</g>
					<g>
						<path class="st0" d="M272.6,123.6h-0.4c-3.3,0-5.9,2.6-5.9,5.9c0,0.1,0,0.1,0,0.2 M340.3,134.3v-4.7c0-3.3-2.6-5.9-5.9-5.9
						 M272.6,123.6h61.8" />
						<g>
							<polygon class="st1" points="278.9,135.3 327.8,121 332,135.3 						" />
							<path class="st2"
								d="M327.2,122.2l3.5,12.1h-44.8L327.2,122.2 M328.5,119.7l-56.6,16.5h61.4L328.5,119.7L328.5,119.7z" />
						</g>
						<path class="st3" d="M341.9,134.3H271c-2.5,0-4.6-2-4.7-4.5c0,0.1,0,0.1,0,0.2v55.5c0,3.5,2.8,6.3,6.3,6.3h68.9
						c3.5,0,6.3-2.8,6.3-6.3v-45.3C347.8,136.9,345.2,134.3,341.9,134.3z" />
						<path class="st3" d="M350.6,174.4h-28c-3.5,0-6.3-2.8-6.3-6.3v-10.2c0-3.5,2.8-6.3,6.3-6.3h28c1.7,0,3.2,1.4,3.2,3.2v16.5
						C353.7,173,352.3,174.4,350.6,174.4z" />
						<circle class="st3" cx="326.1" cy="163" r="4.3" />
					</g>
					<g>
						<path class="st0" d="M395.3,123.6h-0.4c-3.3,0-5.9,2.6-5.9,5.9c0,0.1,0,0.1,0,0.2 M463.1,134.3v-4.7c0-3.3-2.6-5.9-5.9-5.9
						 M395.3,123.6h61.8" />
						<g>
							<polygon class="st1" points="401.7,135.3 450.6,121 454.8,135.3 						" />
							<path class="st2"
								d="M449.9,122.2l3.5,12.1h-44.8L449.9,122.2 M451.3,119.7l-56.6,16.5h61.4L451.3,119.7L451.3,119.7z" />
						</g>
						<path class="st3" d="M464.6,134.3h-70.9c-2.5,0-4.6-2-4.7-4.5c0,0.1,0,0.1,0,0.2v55.5c0,3.5,2.8,6.3,6.3,6.3h68.9
						c3.5,0,6.3-2.8,6.3-6.3v-45.3C470.6,136.9,467.9,134.3,464.6,134.3z" />
						<path class="st3" d="M473.3,174.4h-28c-3.5,0-6.3-2.8-6.3-6.3v-10.2c0-3.5,2.8-6.3,6.3-6.3h28c1.7,0,3.2,1.4,3.2,3.2v16.5
						C476.5,173,475.1,174.4,473.3,174.4z" />
						<circle class="st3" cx="448.9" cy="163" r="4.3" />
					</g>
					<g>
						<path class="st0" d="M518.1,123.6h-0.4c-3.3,0-5.9,2.6-5.9,5.9c0,0.1,0,0.1,0,0.2 M585.8,134.3v-4.7c0-3.3-2.6-5.9-5.9-5.9
						 M518.1,123.6h61.8" />
						<g>
							<polygon class="st1" points="524.4,135.3 573.3,121 577.5,135.3 						" />
							<path class="st2"
								d="M572.7,122.2l3.5,12.1h-44.8L572.7,122.2 M574,119.7l-56.6,16.5h61.4L574,119.7L574,119.7z" />
						</g>
						<path class="st3" d="M587.4,134.3h-70.9c-2.5,0-4.6-2-4.7-4.5c0,0.1,0,0.1,0,0.2v55.5c0,3.5,2.8,6.3,6.3,6.3H587
						c3.5,0,6.3-2.8,6.3-6.3v-45.3C593.3,136.9,590.7,134.3,587.4,134.3z" />
						<path class="st3" d="M596.1,174.4h-28c-3.5,0-6.3-2.8-6.3-6.3v-10.2c0-3.5,2.8-6.3,6.3-6.3h28c1.7,0,3.2,1.4,3.2,3.2v16.5
						C599.2,173,597.8,174.4,596.1,174.4z" />
						<circle class="st3" cx="571.6" cy="163" r="4.3" />
					</g>
					<g>
						<path class="st0" d="M27.1,224.9h-0.4c-3.3,0-5.9,2.6-5.9,5.9c0,0.1,0,0.1,0,0.2 M94.8,235.5v-4.7c0-3.3-2.6-5.9-5.9-5.9
						 M27.1,224.9h61.8" />
						<g>
							<polygon class="st1" points="33.4,236.5 82.3,222.2 86.5,236.5 						" />
							<path class="st2"
								d="M81.7,223.5l3.5,12.1H40.4L81.7,223.5 M83,221l-56.6,16.5h61.4L83,221L83,221z" />
						</g>
						<path class="st3" d="M96.4,235.5H25.5c-2.5,0-4.6-2-4.7-4.5c0,0.1,0,0.1,0,0.2v55.5c0,3.5,2.8,6.3,6.3,6.3H96
						c3.5,0,6.3-2.8,6.3-6.3v-45.3C102.3,238.2,99.7,235.5,96.4,235.5z" />
						<path class="st3" d="M105.1,275.7h-28c-3.5,0-6.3-2.8-6.3-6.3v-10.2c0-3.5,2.8-6.3,6.3-6.3h28c1.7,0,3.2,1.4,3.2,3.2v16.5
						C108.2,274.3,106.8,275.7,105.1,275.7z" />
						<circle class="st3" cx="80.6" cy="264.3" r="4.3" />
					</g>
					<g>
						<path class="st0" d="M149.8,224.9h-0.4c-3.3,0-5.9,2.6-5.9,5.9c0,0.1,0,0.1,0,0.2 M217.6,235.5v-4.7c0-3.3-2.6-5.9-5.9-5.9
						 M149.8,224.9h61.8" />
						<g>
							<polygon class="st1" points="156.2,236.5 205.1,222.2 209.3,236.5 						" />
							<path class="st2"
								d="M204.4,223.5l3.5,12.1h-44.8L204.4,223.5 M205.8,221l-56.6,16.5h61.4L205.8,221L205.8,221z" />
						</g>
						<path class="st3" d="M219.1,235.5h-70.9c-2.5,0-4.6-2-4.7-4.5c0,0.1,0,0.1,0,0.2v55.5c0,3.5,2.8,6.3,6.3,6.3h68.9
						c3.5,0,6.3-2.8,6.3-6.3v-45.3C225.1,238.2,222.4,235.5,219.1,235.5z" />
						<path class="st3" d="M227.8,275.7h-28c-3.5,0-6.3-2.8-6.3-6.3v-10.2c0-3.5,2.8-6.3,6.3-6.3h28c1.7,0,3.2,1.4,3.2,3.2v16.5
						C231,274.3,229.6,275.7,227.8,275.7z" />
						<circle class="st3" cx="203.4" cy="264.3" r="4.3" />
					</g>
					<g>
						<path class="st0" d="M272.6,224.9h-0.4c-3.3,0-5.9,2.6-5.9,5.9c0,0.1,0,0.1,0,0.2 M340.3,235.5v-4.7c0-3.3-2.6-5.9-5.9-5.9
						 M272.6,224.9h61.8" />
						<g>
							<polygon class="st1" points="278.9,236.5 327.8,222.2 332,236.5 						" />
							<path class="st2"
								d="M327.2,223.5l3.5,12.1h-44.8L327.2,223.5 M328.5,221l-56.6,16.5h61.4L328.5,221L328.5,221z" />
						</g>
						<path class="st3" d="M341.9,235.5H271c-2.5,0-4.6-2-4.7-4.5c0,0.1,0,0.1,0,0.2v55.5c0,3.5,2.8,6.3,6.3,6.3h68.9
						c3.5,0,6.3-2.8,6.3-6.3v-45.3C347.8,238.2,345.2,235.5,341.9,235.5z" />
						<path class="st3" d="M350.6,275.7h-28c-3.5,0-6.3-2.8-6.3-6.3v-10.2c0-3.5,2.8-6.3,6.3-6.3h28c1.7,0,3.2,1.4,3.2,3.2v16.5
						C353.7,274.3,352.3,275.7,350.6,275.7z" />
						<circle class="st3" cx="326.1" cy="264.3" r="4.3" />
					</g>
					<g>
						<path class="st0" d="M395.3,224.9h-0.4c-3.3,0-5.9,2.6-5.9,5.9c0,0.1,0,0.1,0,0.2 M463.1,235.5v-4.7c0-3.3-2.6-5.9-5.9-5.9
						 M395.3,224.9h61.8" />
						<g>
							<polygon class="st1" points="401.7,236.5 450.6,222.2 454.8,236.5 						" />
							<path class="st2"
								d="M449.9,223.5l3.5,12.1h-44.8L449.9,223.5 M451.3,221l-56.6,16.5h61.4L451.3,221L451.3,221z" />
						</g>
						<path class="st3" d="M464.6,235.5h-70.9c-2.5,0-4.6-2-4.7-4.5c0,0.1,0,0.1,0,0.2v55.5c0,3.5,2.8,6.3,6.3,6.3h68.9
						c3.5,0,6.3-2.8,6.3-6.3v-45.3C470.6,238.2,467.9,235.5,464.6,235.5z" />
						<path class="st3" d="M473.3,275.7h-28c-3.5,0-6.3-2.8-6.3-6.3v-10.2c0-3.5,2.8-6.3,6.3-6.3h28c1.7,0,3.2,1.4,3.2,3.2v16.5
						C476.5,274.3,475.1,275.7,473.3,275.7z" />
						<circle class="st3" cx="448.9" cy="264.3" r="4.3" />
					</g>
					<g>
						<path class="st0" d="M518.1,224.9h-0.4c-3.3,0-5.9,2.6-5.9,5.9c0,0.1,0,0.1,0,0.2 M585.8,235.5v-4.7c0-3.3-2.6-5.9-5.9-5.9
						 M518.1,224.9h61.8" />
						<g>
							<polygon class="st1" points="524.4,236.5 573.3,222.2 577.5,236.5 						" />
							<path class="st2"
								d="M572.7,223.5l3.5,12.1h-44.8L572.7,223.5 M574,221l-56.6,16.5h61.4L574,221L574,221z" />
						</g>
						<path class="st3" d="M587.4,235.5h-70.9c-2.5,0-4.6-2-4.7-4.5c0,0.1,0,0.1,0,0.2v55.5c0,3.5,2.8,6.3,6.3,6.3H587
						c3.5,0,6.3-2.8,6.3-6.3v-45.3C593.3,238.2,590.7,235.5,587.4,235.5z" />
						<path class="st3" d="M596.1,275.7h-28c-3.5,0-6.3-2.8-6.3-6.3v-10.2c0-3.5,2.8-6.3,6.3-6.3h28c1.7,0,3.2,1.4,3.2,3.2v16.5
						C599.2,274.3,597.8,275.7,596.1,275.7z" />
						<circle class="st3" cx="571.6" cy="264.3" r="4.3" />
					</g>
					<g>
						<path class="st0" d="M27.1,326.1h-0.4c-3.3,0-5.9,2.6-5.9,5.9c0,0.1,0,0.1,0,0.2 M94.8,336.8V332c0-3.3-2.6-5.9-5.9-5.9
						 M27.1,326.1h61.8" />
						<g>
							<polygon class="st1" points="33.4,337.8 82.3,323.5 86.5,337.8 						" />
							<path class="st2"
								d="M81.7,324.7l3.5,12.1H40.4L81.7,324.7 M83,322.2l-56.6,16.5h61.4L83,322.2L83,322.2z" />
						</g>
						<path class="st3" d="M96.4,336.8H25.5c-2.5,0-4.6-2-4.7-4.5c0,0.1,0,0.1,0,0.2V388c0,3.5,2.8,6.3,6.3,6.3H96
						c3.5,0,6.3-2.8,6.3-6.3v-45.3C102.3,339.4,99.7,336.8,96.4,336.8z" />
						<path class="st3" d="M105.1,376.9h-28c-3.5,0-6.3-2.8-6.3-6.3v-10.2c0-3.5,2.8-6.3,6.3-6.3h28c1.7,0,3.2,1.4,3.2,3.2v16.5
						C108.2,375.5,106.8,376.9,105.1,376.9z" />
						<circle class="st3" cx="80.6" cy="365.5" r="4.3" />
					</g>
				</g>
				<g>
					<path class="st0" d="M149.8,326.1h-0.4c-3.3,0-5.9,2.6-5.9,5.9c0,0.1,0,0.1,0,0.2 M217.6,336.8V332c0-3.3-2.6-5.9-5.9-5.9
					 M149.8,326.1h61.8" />
					<g>
						<polygon class="st4" points="156.2,337.8 205.1,323.5 209.3,337.8 					" />
						<path class="st2"
							d="M204.4,324.7l3.5,12.1h-44.8L204.4,324.7 M205.8,322.2l-56.6,16.5h61.4L205.8,322.2L205.8,322.2z" />
					</g>
					<path class="st5" d="M219.1,336.8h-70.9c-2.5,0-4.6-2-4.7-4.5c0,0.1,0,0.1,0,0.2V388c0,3.5,2.8,6.3,6.3,6.3h68.9
					c3.5,0,6.3-2.8,6.3-6.3v-45.3C225.1,339.4,222.4,336.8,219.1,336.8z" />
					<rect x="162.8" y="336.4" class="st4" width="54.5" height="58" />
					<path class="st1" d="M163,394.9h-12.9c-3.3,0-6.1-2.7-6.1-6.1v-52.9h19V394.9z" />
					<path class="st0" d="M219.1,336.8h-70.9c-2.5,0-4.6-2-4.7-4.5c0,0.1,0,0.1,0,0.2V388c0,3.5,2.8,6.3,6.3,6.3h68.9
					c3.5,0,6.3-2.8,6.3-6.3v-45.3C225.1,339.4,222.4,336.8,219.1,336.8z" />
					<path class="st5" d="M227.8,376.9h-28c-3.5,0-6.3-2.8-6.3-6.3v-10.2c0-3.5,2.8-6.3,6.3-6.3h28c1.7,0,3.2,1.4,3.2,3.2v16.5
					C231,375.5,229.6,376.9,227.8,376.9z" />
					<circle class="st5" cx="203.4" cy="365.5" r="4.3" />
				</g>
				<g>
					<path class="st0" d="M272.6,326.1h-0.4c-3.3,0-5.9,2.6-5.9,5.9c0,0.1,0,0.1,0,0.2 M340.3,336.8V332c0-3.3-2.6-5.9-5.9-5.9
					 M272.6,326.1h61.8" />
					<g>
						<polygon class="st6" points="278.9,337.8 327.8,323.5 332,337.8 					" />
						<path class="st2"
							d="M327.2,324.7l3.5,12.1h-44.8L327.2,324.7 M328.5,322.2l-56.6,16.5h61.4L328.5,322.2L328.5,322.2z" />
					</g>
					<path class="st5" d="M341.9,336.8H271c-2.5,0-4.6-2-4.7-4.5c0,0.1,0,0.1,0,0.2V388c0,3.5,2.8,6.3,6.3,6.3h68.9
					c3.5,0,6.3-2.8,6.3-6.3v-45.3C347.8,339.4,345.2,336.8,341.9,336.8z" />
					<path class="st5" d="M350.6,376.9h-28c-3.5,0-6.3-2.8-6.3-6.3v-10.2c0-3.5,2.8-6.3,6.3-6.3h28c1.7,0,3.2,1.4,3.2,3.2v16.5
					C353.7,375.5,352.3,376.9,350.6,376.9z" />
					<circle class="st5" cx="326.1" cy="365.5" r="4.3" />
				</g>
				<g>
					<path class="st0" d="M395.3,326.1h-0.4c-3.3,0-5.9,2.6-5.9,5.9c0,0.1,0,0.1,0,0.2 M463.1,336.8V332c0-3.3-2.6-5.9-5.9-5.9
					 M395.3,326.1h61.8" />
					<g>
						<polygon class="st6" points="401.7,337.8 450.6,323.5 454.8,337.8 					" />
						<path class="st2"
							d="M449.9,324.7l3.5,12.1h-44.8L449.9,324.7 M451.3,322.2l-56.6,16.5h61.4L451.3,322.2L451.3,322.2z" />
					</g>
					<path class="st5" d="M464.6,336.8h-70.9c-2.5,0-4.6-2-4.7-4.5c0,0.1,0,0.1,0,0.2V388c0,3.5,2.8,6.3,6.3,6.3h68.9
					c3.5,0,6.3-2.8,6.3-6.3v-45.3C470.6,339.4,467.9,336.8,464.6,336.8z" />
					<path class="st5" d="M473.3,376.9h-28c-3.5,0-6.3-2.8-6.3-6.3v-10.2c0-3.5,2.8-6.3,6.3-6.3h28c1.7,0,3.2,1.4,3.2,3.2v16.5
					C476.5,375.5,475.1,376.9,473.3,376.9z" />
					<circle class="st5" cx="448.9" cy="365.5" r="4.3" />
				</g>
				<g>
					<path class="st0" d="M518.1,326.1h-0.4c-3.3,0-5.9,2.6-5.9,5.9c0,0.1,0,0.1,0,0.2 M585.8,336.8V332c0-3.3-2.6-5.9-5.9-5.9
					 M518.1,326.1h61.8" />
					<g>
						<polygon class="st6" points="524.4,337.8 573.3,323.5 577.5,337.8 					" />
						<path class="st2"
							d="M572.7,324.7l3.5,12.1h-44.8L572.7,324.7 M574,322.2l-56.6,16.5h61.4L574,322.2L574,322.2z" />
					</g>
					<path class="st5" d="M587.4,336.8h-70.9c-2.5,0-4.6-2-4.7-4.5c0,0.1,0,0.1,0,0.2V388c0,3.5,2.8,6.3,6.3,6.3H587
					c3.5,0,6.3-2.8,6.3-6.3v-45.3C593.3,339.4,590.7,336.8,587.4,336.8z" />
					<path class="st5" d="M596.1,376.9h-28c-3.5,0-6.3-2.8-6.3-6.3v-10.2c0-3.5,2.8-6.3,6.3-6.3h28c1.7,0,3.2,1.4,3.2,3.2v16.5
					C599.2,375.5,597.8,376.9,596.1,376.9z" />
					<circle class="st5" cx="571.6" cy="365.5" r="4.3" />
				</g>
				<g>
					<path class="st0" d="M27.1,427.4h-0.4c-3.3,0-5.9,2.6-5.9,5.9c0,0.1,0,0.1,0,0.2 M94.8,438v-4.7c0-3.3-2.6-5.9-5.9-5.9
					 M27.1,427.4h61.8" />
					<g>
						<polygon class="st6" points="33.4,439 82.3,424.7 86.5,439 					" />
						<path class="st2"
							d="M81.7,426l3.5,12.1H40.4L81.7,426 M83,423.5L26.4,440h61.4L83,423.5L83,423.5z" />
					</g>
					<path class="st5" d="M96.4,438H25.5c-2.5,0-4.6-2-4.7-4.5c0,0.1,0,0.1,0,0.2v55.5c0,3.5,2.8,6.3,6.3,6.3H96
					c3.5,0,6.3-2.8,6.3-6.3v-45.3C102.3,440.7,99.7,438,96.4,438z" />
					<path class="st5" d="M105.1,478.2h-28c-3.5,0-6.3-2.8-6.3-6.3v-10.2c0-3.5,2.8-6.3,6.3-6.3h28c1.7,0,3.2,1.4,3.2,3.2V475
					C108.2,476.8,106.8,478.2,105.1,478.2z" />
					<circle class="st5" cx="80.6" cy="466.8" r="4.3" />
				</g>
				<g>
					<path class="st0" d="M149.8,427.4h-0.4c-3.3,0-5.9,2.6-5.9,5.9c0,0.1,0,0.1,0,0.2 M217.6,438v-4.7c0-3.3-2.6-5.9-5.9-5.9
					 M149.8,427.4h61.8" />
					<g>
						<polygon class="st6" points="156.2,439 205.1,424.7 209.3,439 					" />
						<path class="st2"
							d="M204.4,426l3.5,12.1h-44.8L204.4,426 M205.8,423.5L149.2,440h61.4L205.8,423.5L205.8,423.5z" />
					</g>
					<path class="st5" d="M219.1,438h-70.9c-2.5,0-4.6-2-4.7-4.5c0,0.1,0,0.1,0,0.2v55.5c0,3.5,2.8,6.3,6.3,6.3h68.9
					c3.5,0,6.3-2.8,6.3-6.3v-45.3C225.1,440.7,222.4,438,219.1,438z" />
					<path class="st5" d="M227.8,478.2h-28c-3.5,0-6.3-2.8-6.3-6.3v-10.2c0-3.5,2.8-6.3,6.3-6.3h28c1.7,0,3.2,1.4,3.2,3.2V475
					C231,476.8,229.6,478.2,227.8,478.2z" />
					<circle class="st5" cx="203.4" cy="466.8" r="4.3" />
				</g>
				<g>
					<path class="st0" d="M272.6,427.4h-0.4c-3.3,0-5.9,2.6-5.9,5.9c0,0.1,0,0.1,0,0.2 M340.3,438v-4.7c0-3.3-2.6-5.9-5.9-5.9
					 M272.6,427.4h61.8" />
					<g>
						<polygon class="st6" points="278.9,439 327.8,424.7 332,439 					" />
						<path class="st2"
							d="M327.2,426l3.5,12.1h-44.8L327.2,426 M328.5,423.5L271.9,440h61.4L328.5,423.5L328.5,423.5z" />
					</g>
					<path class="st5" d="M341.9,438H271c-2.5,0-4.6-2-4.7-4.5c0,0.1,0,0.1,0,0.2v55.5c0,3.5,2.8,6.3,6.3,6.3h68.9
					c3.5,0,6.3-2.8,6.3-6.3v-45.3C347.8,440.7,345.2,438,341.9,438z" />
					<path class="st5" d="M350.6,478.2h-28c-3.5,0-6.3-2.8-6.3-6.3v-10.2c0-3.5,2.8-6.3,6.3-6.3h28c1.7,0,3.2,1.4,3.2,3.2V475
					C353.7,476.8,352.3,478.2,350.6,478.2z" />
					<circle class="st5" cx="326.1" cy="466.8" r="4.3" />
				</g>
				<g>
					<path class="st0" d="M395.3,427.4h-0.4c-3.3,0-5.9,2.6-5.9,5.9c0,0.1,0,0.1,0,0.2 M463.1,438v-4.7c0-3.3-2.6-5.9-5.9-5.9
					 M395.3,427.4h61.8" />
					<g>
						<polygon class="st6" points="401.7,439 450.6,424.7 454.8,439 					" />
						<path class="st2"
							d="M449.9,426l3.5,12.1h-44.8L449.9,426 M451.3,423.5L394.7,440h61.4L451.3,423.5L451.3,423.5z" />
					</g>
					<path class="st5" d="M464.6,438h-70.9c-2.5,0-4.6-2-4.7-4.5c0,0.1,0,0.1,0,0.2v55.5c0,3.5,2.8,6.3,6.3,6.3h68.9
					c3.5,0,6.3-2.8,6.3-6.3v-45.3C470.6,440.7,467.9,438,464.6,438z" />
					<path class="st5" d="M473.3,478.2h-28c-3.5,0-6.3-2.8-6.3-6.3v-10.2c0-3.5,2.8-6.3,6.3-6.3h28c1.7,0,3.2,1.4,3.2,3.2V475
					C476.5,476.8,475.1,478.2,473.3,478.2z" />
					<circle class="st5" cx="448.9" cy="466.8" r="4.3" />
				</g>
				<g>
					<path class="st0" d="M518.1,427.4h-0.4c-3.3,0-5.9,2.6-5.9,5.9c0,0.1,0,0.1,0,0.2 M585.8,438v-4.7c0-3.3-2.6-5.9-5.9-5.9
					 M518.1,427.4h61.8" />
					<g>
						<polygon class="st6" points="524.4,439 573.3,424.7 577.5,439 					" />
						<path class="st2"
							d="M572.7,426l3.5,12.1h-44.8L572.7,426 M574,423.5L517.4,440h61.4L574,423.5L574,423.5z" />
					</g>
					<path class="st5" d="M587.4,438h-70.9c-2.5,0-4.6-2-4.7-4.5c0,0.1,0,0.1,0,0.2v55.5c0,3.5,2.8,6.3,6.3,6.3H587
					c3.5,0,6.3-2.8,6.3-6.3v-45.3C593.3,440.7,590.7,438,587.4,438z" />
					<path class="st5" d="M596.1,478.2h-28c-3.5,0-6.3-2.8-6.3-6.3v-10.2c0-3.5,2.8-6.3,6.3-6.3h28c1.7,0,3.2,1.4,3.2,3.2V475
					C599.2,476.8,597.8,478.2,596.1,478.2z" />
					<circle class="st5" cx="571.6" cy="466.8" r="4.3" />
				</g>
			</g>
		</g>
	</g>
</svg>